<mxfile host="app.diagrams.net" modified="2021-08-14T16:53:39.235Z" agent="5.0 (X11)" etag="Cst0ZQKQkoMQTwtiT5py" version="14.9.6" type="github">
  <diagram id="C5RBs43oDa-KdzZeNtuy" name="Page-1">
    <mxGraphModel dx="1240" dy="694" grid="1" gridSize="10" guides="1" tooltips="1" connect="1" arrows="1" fold="1" page="1" pageScale="1" pageWidth="827" pageHeight="1169" background="#182E3E" math="0" shadow="0">
      <root>
        <mxCell id="WIyWlLk6GJQsqaUBKTNV-0" />
        <mxCell id="WIyWlLk6GJQsqaUBKTNV-1" parent="WIyWlLk6GJQsqaUBKTNV-0" />
        <mxCell id="WIyWlLk6GJQsqaUBKTNV-2" value="" style="html=1;jettySize=auto;orthogonalLoop=1;fontSize=11;endArrow=block;endFill=0;endSize=8;strokeWidth=1;shadow=0;labelBackgroundColor=none;edgeStyle=orthogonalEdgeStyle;strokeColor=#FFFFFF;fontColor=#FFFFFF;" parent="WIyWlLk6GJQsqaUBKTNV-1" target="WIyWlLk6GJQsqaUBKTNV-6" edge="1">
          <mxGeometry relative="1" as="geometry">
            <mxPoint x="220" y="120" as="sourcePoint" />
          </mxGeometry>
        </mxCell>
        <mxCell id="WIyWlLk6GJQsqaUBKTNV-4" value="Yes" style="html=1;jettySize=auto;orthogonalLoop=1;fontSize=11;endArrow=block;endFill=0;endSize=8;strokeWidth=1;shadow=0;labelBackgroundColor=none;edgeStyle=orthogonalEdgeStyle;strokeColor=#FFFFFF;fontColor=#FFFFFF;" parent="WIyWlLk6GJQsqaUBKTNV-1" target="WIyWlLk6GJQsqaUBKTNV-10" edge="1">
          <mxGeometry y="20" relative="1" as="geometry">
            <mxPoint as="offset" />
            <mxPoint x="220" y="250" as="sourcePoint" />
          </mxGeometry>
        </mxCell>
        <mxCell id="WIyWlLk6GJQsqaUBKTNV-5" value="No" style="edgeStyle=orthogonalEdgeStyle;html=1;jettySize=auto;orthogonalLoop=1;fontSize=11;endArrow=block;endFill=0;endSize=8;strokeWidth=1;shadow=0;labelBackgroundColor=none;strokeColor=#FFFFFF;fontColor=#FFFFFF;" parent="WIyWlLk6GJQsqaUBKTNV-1" target="WIyWlLk6GJQsqaUBKTNV-7" edge="1">
          <mxGeometry y="10" relative="1" as="geometry">
            <mxPoint as="offset" />
            <mxPoint x="270" y="210" as="sourcePoint" />
          </mxGeometry>
        </mxCell>
        <mxCell id="WIyWlLk6GJQsqaUBKTNV-8" value="No" style="html=1;jettySize=auto;orthogonalLoop=1;fontSize=11;endArrow=block;endFill=0;endSize=8;strokeWidth=1;shadow=0;labelBackgroundColor=none;edgeStyle=orthogonalEdgeStyle;strokeColor=#FFFFFF;fontColor=#FFFFFF;" parent="WIyWlLk6GJQsqaUBKTNV-1" target="WIyWlLk6GJQsqaUBKTNV-11" edge="1">
          <mxGeometry x="0.3333" y="20" relative="1" as="geometry">
            <mxPoint as="offset" />
            <mxPoint x="220" y="370" as="sourcePoint" />
          </mxGeometry>
        </mxCell>
        <mxCell id="WIyWlLk6GJQsqaUBKTNV-9" value="Yes" style="edgeStyle=orthogonalEdgeStyle;html=1;jettySize=auto;orthogonalLoop=1;fontSize=11;endArrow=block;endFill=0;endSize=8;strokeWidth=1;shadow=0;labelBackgroundColor=none;strokeColor=#FFFFFF;fontColor=#FFFFFF;" parent="WIyWlLk6GJQsqaUBKTNV-1" target="WIyWlLk6GJQsqaUBKTNV-12" edge="1">
          <mxGeometry y="10" relative="1" as="geometry">
            <mxPoint as="offset" />
            <mxPoint x="270" y="330" as="sourcePoint" />
          </mxGeometry>
        </mxCell>
        <mxCell id="52YgMZNU1bwDwGNeF70M-12" style="sketch=0;orthogonalLoop=1;jettySize=auto;html=1;entryX=0.5;entryY=0;entryDx=0;entryDy=0;fontColor=#FFFFFF;strokeColor=#FFFFFF;elbow=vertical;shape=flexArrow;edgeStyle=orthogonalEdgeStyle;" edge="1" parent="WIyWlLk6GJQsqaUBKTNV-1" source="52YgMZNU1bwDwGNeF70M-8" target="52YgMZNU1bwDwGNeF70M-11">
          <mxGeometry relative="1" as="geometry" />
        </mxCell>
        <mxCell id="52YgMZNU1bwDwGNeF70M-8" value="" style="verticalLabelPosition=bottom;verticalAlign=top;html=1;shape=hexagon;perimeter=hexagonPerimeter2;arcSize=6;size=0.27;sketch=0;fontColor=#1A1A1A;strokeColor=#FFFFFF;fillColor=#EEEEEE;" vertex="1" parent="WIyWlLk6GJQsqaUBKTNV-1">
          <mxGeometry x="200" y="180" width="100" height="60" as="geometry" />
        </mxCell>
        <mxCell id="52YgMZNU1bwDwGNeF70M-9" value="&lt;div style=&quot;font-size: 15px;&quot;&gt;a = 30&lt;/div&gt;&lt;div style=&quot;font-size: 15px;&quot;&gt;b = 18&lt;br style=&quot;font-size: 15px;&quot;&gt;&lt;/div&gt;" style="text;html=1;resizable=0;autosize=1;align=center;verticalAlign=middle;points=[];fillColor=none;strokeColor=none;sketch=0;fontColor=#1A1A1A;fontSize=15;" vertex="1" parent="WIyWlLk6GJQsqaUBKTNV-1">
          <mxGeometry x="220" y="190" width="60" height="40" as="geometry" />
        </mxCell>
        <mxCell id="52YgMZNU1bwDwGNeF70M-14" style="rounded=1;sketch=0;orthogonalLoop=1;jettySize=auto;html=1;entryX=0.5;entryY=0;entryDx=0;entryDy=0;fontSize=15;fontColor=#FFFFFF;strokeColor=#FFFFFF;elbow=vertical;shape=flexArrow;edgeStyle=orthogonalEdgeStyle;" edge="1" parent="WIyWlLk6GJQsqaUBKTNV-1" source="52YgMZNU1bwDwGNeF70M-11" target="52YgMZNU1bwDwGNeF70M-13">
          <mxGeometry relative="1" as="geometry" />
        </mxCell>
        <mxCell id="52YgMZNU1bwDwGNeF70M-11" value="c = a mod b" style="whiteSpace=wrap;absoluteArcSize=1;arcSize=14;strokeWidth=2;sketch=0;fontColor=#1A1A1A;fillColor=#EEEEEE;html=1;fontSize=15;" vertex="1" parent="WIyWlLk6GJQsqaUBKTNV-1">
          <mxGeometry x="200" y="280" width="100" height="90" as="geometry" />
        </mxCell>
        <mxCell id="52YgMZNU1bwDwGNeF70M-13" value="&lt;div style=&quot;font-size: 15px;&quot;&gt;a = b &lt;br style=&quot;font-size: 15px;&quot;&gt;&lt;/div&gt;&lt;div style=&quot;font-size: 15px;&quot;&gt;b = c&lt;br style=&quot;font-size: 15px;&quot;&gt;&lt;/div&gt;" style="whiteSpace=wrap;html=1;absoluteArcSize=1;arcSize=14;strokeWidth=2;sketch=0;fontColor=#1A1A1A;fillColor=#EEEEEE;fontSize=15;" vertex="1" parent="WIyWlLk6GJQsqaUBKTNV-1">
          <mxGeometry x="200" y="420" width="100" height="100" as="geometry" />
        </mxCell>
        <mxCell id="52YgMZNU1bwDwGNeF70M-24" style="rounded=1;sketch=0;orthogonalLoop=1;jettySize=auto;html=1;exitX=0.5;exitY=1;exitDx=0;exitDy=0;entryX=0.5;entryY=0;entryDx=0;entryDy=0;entryPerimeter=0;fontSize=15;fontColor=#FFFFFF;strokeColor=#FFFFFF;elbow=vertical;shape=flexArrow;edgeStyle=orthogonalEdgeStyle;" edge="1" parent="WIyWlLk6GJQsqaUBKTNV-1" source="52YgMZNU1bwDwGNeF70M-15" target="52YgMZNU1bwDwGNeF70M-22">
          <mxGeometry relative="1" as="geometry" />
        </mxCell>
        <mxCell id="52YgMZNU1bwDwGNeF70M-15" value="c=a mod b" style="rounded=1;whiteSpace=wrap;html=1;absoluteArcSize=1;arcSize=14;strokeWidth=2;sketch=0;fontSize=15;fontColor=#1A1A1A;fillColor=#EEEEEE;" vertex="1" parent="WIyWlLk6GJQsqaUBKTNV-1">
          <mxGeometry x="200" y="560" width="100" height="100" as="geometry" />
        </mxCell>
        <mxCell id="52YgMZNU1bwDwGNeF70M-20" style="rounded=1;sketch=0;orthogonalLoop=1;jettySize=auto;html=1;entryX=0.5;entryY=0;entryDx=0;entryDy=0;fontSize=15;fontColor=#FFFFFF;strokeColor=#FFFFFF;elbow=vertical;shape=flexArrow;edgeStyle=orthogonalEdgeStyle;" edge="1" parent="WIyWlLk6GJQsqaUBKTNV-1" source="52YgMZNU1bwDwGNeF70M-16" target="52YgMZNU1bwDwGNeF70M-8">
          <mxGeometry relative="1" as="geometry" />
        </mxCell>
        <mxCell id="52YgMZNU1bwDwGNeF70M-16" value="START" style="strokeWidth=2;html=1;shape=mxgraph.flowchart.terminator;whiteSpace=wrap;sketch=0;fontSize=15;fontColor=#1A1A1A;fillColor=#EEEEEE;" vertex="1" parent="WIyWlLk6GJQsqaUBKTNV-1">
          <mxGeometry x="200" y="70" width="100" height="60" as="geometry" />
        </mxCell>
        <mxCell id="52YgMZNU1bwDwGNeF70M-22" value="" style="strokeWidth=2;html=1;shape=mxgraph.flowchart.start_2;whiteSpace=wrap;sketch=0;fontSize=15;fontColor=#1A1A1A;fillColor=#EEEEEE;" vertex="1" parent="WIyWlLk6GJQsqaUBKTNV-1">
          <mxGeometry x="220" y="710" width="60" height="60" as="geometry" />
        </mxCell>
        <mxCell id="52YgMZNU1bwDwGNeF70M-30" style="rounded=1;sketch=0;orthogonalLoop=1;jettySize=auto;html=1;exitX=0.5;exitY=1;exitDx=0;exitDy=0;exitPerimeter=0;entryX=0.5;entryY=0;entryDx=0;entryDy=0;fontSize=15;fontColor=#FFFFFF;strokeColor=#FFFFFF;elbow=vertical;shape=flexArrow;edgeStyle=orthogonalEdgeStyle;" edge="1" parent="WIyWlLk6GJQsqaUBKTNV-1" source="52YgMZNU1bwDwGNeF70M-25" target="52YgMZNU1bwDwGNeF70M-27">
          <mxGeometry relative="1" as="geometry" />
        </mxCell>
        <mxCell id="52YgMZNU1bwDwGNeF70M-25" value="" style="strokeWidth=2;html=1;shape=mxgraph.flowchart.start_2;whiteSpace=wrap;sketch=0;fontSize=15;fontColor=#1A1A1A;fillColor=#EEEEEE;" vertex="1" parent="WIyWlLk6GJQsqaUBKTNV-1">
          <mxGeometry x="410" y="70" width="60" height="60" as="geometry" />
        </mxCell>
        <mxCell id="52YgMZNU1bwDwGNeF70M-26" style="rounded=1;sketch=0;orthogonalLoop=1;jettySize=auto;html=1;exitX=0;exitY=0.5;exitDx=0;exitDy=0;exitPerimeter=0;entryX=0.167;entryY=0.505;entryDx=0;entryDy=0;entryPerimeter=0;fontSize=15;fontColor=#FFFFFF;strokeColor=#FFFFFF;elbow=vertical;shape=flexArrow;edgeStyle=orthogonalEdgeStyle;" edge="1" parent="WIyWlLk6GJQsqaUBKTNV-1" source="52YgMZNU1bwDwGNeF70M-22" target="52YgMZNU1bwDwGNeF70M-22">
          <mxGeometry relative="1" as="geometry" />
        </mxCell>
        <mxCell id="52YgMZNU1bwDwGNeF70M-37" style="rounded=1;sketch=0;orthogonalLoop=1;jettySize=auto;elbow=vertical;html=1;entryX=0.5;entryY=0;entryDx=0;entryDy=0;fontSize=15;fontColor=#FFFFFF;strokeColor=#FFFFFF;shape=flexArrow;edgeStyle=orthogonalEdgeStyle;" edge="1" parent="WIyWlLk6GJQsqaUBKTNV-1" source="52YgMZNU1bwDwGNeF70M-27" target="52YgMZNU1bwDwGNeF70M-31">
          <mxGeometry relative="1" as="geometry" />
        </mxCell>
        <mxCell id="52YgMZNU1bwDwGNeF70M-27" value="a=b&#xa;b=c" style="rounded=1;whiteSpace=wrap;html=1;absoluteArcSize=1;arcSize=14;strokeWidth=2;sketch=0;fontSize=15;fontColor=#1A1A1A;fillColor=#EEEEEE;" vertex="1" parent="WIyWlLk6GJQsqaUBKTNV-1">
          <mxGeometry x="390" y="170" width="100" height="100" as="geometry" />
        </mxCell>
        <mxCell id="52YgMZNU1bwDwGNeF70M-38" style="edgeStyle=orthogonalEdgeStyle;shape=flexArrow;rounded=1;sketch=0;orthogonalLoop=1;jettySize=auto;html=1;exitX=0.5;exitY=1;exitDx=0;exitDy=0;fontSize=15;fontColor=#FFFFFF;strokeColor=#FFFFFF;" edge="1" parent="WIyWlLk6GJQsqaUBKTNV-1" source="52YgMZNU1bwDwGNeF70M-31" target="52YgMZNU1bwDwGNeF70M-32">
          <mxGeometry relative="1" as="geometry" />
        </mxCell>
        <mxCell id="52YgMZNU1bwDwGNeF70M-31" value="C=a mod b" style="rounded=1;whiteSpace=wrap;html=1;absoluteArcSize=1;arcSize=14;strokeWidth=2;sketch=0;fontSize=15;fontColor=#1A1A1A;fillColor=#EEEEEE;" vertex="1" parent="WIyWlLk6GJQsqaUBKTNV-1">
          <mxGeometry x="390" y="340" width="100" height="100" as="geometry" />
        </mxCell>
        <mxCell id="52YgMZNU1bwDwGNeF70M-39" style="edgeStyle=orthogonalEdgeStyle;shape=flexArrow;rounded=1;sketch=0;orthogonalLoop=1;jettySize=auto;html=1;fontSize=15;fontColor=#FFFFFF;strokeColor=#FFFFFF;" edge="1" parent="WIyWlLk6GJQsqaUBKTNV-1" source="52YgMZNU1bwDwGNeF70M-32" target="52YgMZNU1bwDwGNeF70M-33">
          <mxGeometry relative="1" as="geometry" />
        </mxCell>
        <mxCell id="52YgMZNU1bwDwGNeF70M-32" value="a=b&#xa;b=c" style="rounded=1;whiteSpace=wrap;html=1;absoluteArcSize=1;arcSize=14;strokeWidth=2;sketch=0;fontSize=15;fontColor=#1A1A1A;fillColor=#EEEEEE;" vertex="1" parent="WIyWlLk6GJQsqaUBKTNV-1">
          <mxGeometry x="390" y="490" width="100" height="100" as="geometry" />
        </mxCell>
        <mxCell id="52YgMZNU1bwDwGNeF70M-40" style="edgeStyle=orthogonalEdgeStyle;shape=flexArrow;rounded=1;sketch=0;orthogonalLoop=1;jettySize=auto;html=1;exitX=0.5;exitY=1;exitDx=0;exitDy=0;fontSize=15;fontColor=#FFFFFF;strokeColor=#FFFFFF;" edge="1" parent="WIyWlLk6GJQsqaUBKTNV-1" source="52YgMZNU1bwDwGNeF70M-33" target="52YgMZNU1bwDwGNeF70M-34">
          <mxGeometry relative="1" as="geometry" />
        </mxCell>
        <mxCell id="52YgMZNU1bwDwGNeF70M-33" value="WRITE a" style="shape=parallelogram;html=1;strokeWidth=2;perimeter=parallelogramPerimeter;whiteSpace=wrap;rounded=1;arcSize=12;size=0.23;sketch=0;fontSize=15;fontColor=#1A1A1A;fillColor=#EEEEEE;" vertex="1" parent="WIyWlLk6GJQsqaUBKTNV-1">
          <mxGeometry x="365" y="650" width="150" height="80" as="geometry" />
        </mxCell>
        <mxCell id="52YgMZNU1bwDwGNeF70M-34" value="END" style="strokeWidth=2;html=1;shape=mxgraph.flowchart.terminator;whiteSpace=wrap;sketch=0;fontSize=15;fontColor=#1A1A1A;fillColor=#EEEEEE;" vertex="1" parent="WIyWlLk6GJQsqaUBKTNV-1">
          <mxGeometry x="390" y="800" width="100" height="60" as="geometry" />
        </mxCell>
      </root>
    </mxGraphModel>
  </diagram>
</mxfile>
